<?xml version="1.0" encoding="UTF-8" standalone="no"?>
<!DOCTYPE svg PUBLIC "-//W3C//DTD SVG 1.1//EN" "http://www.w3.org/Graphics/SVG/1.1/DTD/svg11.dtd">
<svg width="100%" height="100%" viewBox="0 0 256 256" version="1.1" xmlns="http://www.w3.org/2000/svg" xmlns:xlink="http://www.w3.org/1999/xlink" xml:space="preserve" xmlns:serif="http://www.serif.com/" style="fill-rule:evenodd;clip-rule:evenodd;stroke-linejoin:round;stroke-miterlimit:2;">
    <g transform="matrix(1,0,0,1,1.05542,0)">
        <g transform="matrix(1.16216,0,0,1.16216,-82.454,-35.3623)">
            <path d="M180.18,102.68L183.974,123.945L196.619,106.432L190.811,127.238L209.802,116.945L195.541,133.17L217.118,132.137L197.23,140.568L217.118,148.998L195.541,147.965L209.802,164.19L190.811,153.898L196.619,174.704L183.974,157.19L180.18,178.456L176.386,157.19L163.741,174.704L169.55,153.898L150.558,164.19L164.819,147.965L143.242,148.998L163.131,140.568L143.242,132.137L164.819,133.17L150.558,116.945L169.55,127.238L163.741,106.432L176.386,123.945L180.18,102.68Z" style="fill:white;"/>
        </g>
        <g transform="matrix(1.37651,0.441224,0.441224,-1.37651,-92.2989,222.324)">
            <path d="M144.414,47.883C144.414,47.883 153.138,46.373 158.004,50.903C162.869,55.433 158.507,57.11 158.004,58.788C157.501,60.466 145.589,62.479 145.589,60.298C145.589,58.117 137.368,67.512 137.703,70.364C138.039,73.216 145.253,71.077 146.428,72.923C147.602,74.768 142.695,79.214 142.695,79.214C142.695,79.214 138.878,80.431 137.2,80.095C135.522,79.76 135.355,85.967 134.851,88.819C134.348,91.671 131.496,95.698 130.489,97.711C129.483,99.724 126.182,106.1 128,108.616C129.818,111.133 128,118.683 128,118.683C128,118.683 126.127,126.736 123.611,127.407C121.094,128.078 122.268,135.292 122.268,135.292L117.487,140.787C117.487,140.787 117.739,145.037 116.984,146.323C116.229,147.609 112.957,148.504 112.957,148.504C112.957,148.504 114.475,156.252 113.301,157.623C112.127,158.993 108.348,161.488 108.348,161.488C108.348,161.488 106.617,169.481 106.449,171.494C106.281,173.507 98.924,166.098 105.006,159.877C109.999,154.77 108.615,156.073 109.1,155.126C110.544,152.309 107.421,146.155 108.595,144.478C109.769,142.8 112.44,142.297 112.44,142.297C112.44,142.297 111.447,137.934 112.789,136.592C114.131,135.25 116.229,132.104 116.229,132.104C116.229,132.104 115.781,126.764 116.564,124.555C117.347,122.346 119.451,118.827 120.087,116.334C120.758,113.705 119.473,109.599 118.913,106.267C118.326,102.772 118.769,100.137 121.597,95.362C123.906,91.465 124.848,89.957 126.155,87.813C128.818,83.441 125.834,79.34 125.834,79.34C125.834,79.34 122.69,73.99 120.053,73.94C112.762,73.8 111.028,67.177 111.028,67.177L128,69.693C128,69.693 131.266,59.962 133.677,56.104C137.394,50.153 144.414,47.883 144.414,47.883Z" style="fill:rgb(244,208,0);"/>
        </g>
    </g>
</svg>
